# xmcd CD database file
#
# Track frame offsets:
#	150
#	21331
#	46803
#	74063
#	116197
#	133712
#	181393
#	207237
#	227158
#	260392
#	292101
#
# Disc length: 4127 seconds
#
# Revision: 2
# Processed by: cddbd v1.5PL3 Copyright (c) Steve Scherf et al.
# Submitted via: CDex 1.50
#
DISCID=ae101d0b
DTITLE=Jimi Hendrix - L.A. Without the Words
DYEAR=2004
DGENRE=Classic Rock
TTITLE0=1983
TTITLE1=Beginnings
TTITLE2=Bolero
TTITLE3=Dancing Blues
TTITLE4=EZ Ryder
TTITLE5=Lord I Sing The Blues For Me And You
TTITLE6=Lover Man
TTITLE7=Midnight Lightning
TTITLE8=Peace In Mississippi
TTITLE9=The Things I Used to Do
TTITLE10=Valleys of Neptune
EXTD=YEAR: 2004
EXTT0=
EXTT1=
EXTT2=
EXTT3=
EXTT4=
EXTT5=
EXTT6=
EXTT7=
EXTT8=
EXTT9=
EXTT10=
PLAYORDER=
